<svg xmlns="http://www.w3.org/2000/svg" width="207.281" height="207.281" viewBox="0 0 207.281 207.281">
  <g id="general_features_scale_bigger" transform="translate(-0.5 -0.5)">
    <path id="Path_133" data-name="Path 133" d="M19.7,1.933l83.449,92.984a10.306,10.306,0,0,1,0,13.392L19.666,201.339" transform="translate(50.093 2.505)" fill="none" stroke="#001e2b" stroke-miterlimit="10" stroke-width="1"/>
    <path id="Path_134" data-name="Path 134" d="M33.7,1.933l83.449,92.984a10.306,10.306,0,0,1,0,13.392L33.667,201.339" transform="translate(87.664 2.505)" fill="none" stroke="#001e2b" stroke-miterlimit="10" stroke-width="1"/>
    <path id="Path_135" data-name="Path 135" d="M101.6,97.377,15.7,3.555A8.591,8.591,0,0,0,1,9.586v.045l.045,188.188A8.507,8.507,0,0,0,1,198.7a8.6,8.6,0,0,0,14.689,6.061L101.61,110.89A10.262,10.262,0,0,0,101.6,97.377Z" fill="#36a9e1" stroke="#001e2b" stroke-miterlimit="10" stroke-width="1"/>
  </g>
</svg>
